<?xml version="1.0" encoding="UTF-8" standalone="no"?>
<!DOCTYPE svg PUBLIC "-//W3C//DTD SVG 1.1//EN"
 "http://www.w3.org/Graphics/SVG/1.1/DTD/svg11.dtd">
<!-- Generated by graphviz version 12.1.1 (20240910.0053)
 -->
<!-- Title: INFRA Pages: 1 -->
<svg width="804pt" height="188pt"
 viewBox="0.00 0.00 803.87 188.00" xmlns="http://www.w3.org/2000/svg" xmlns:xlink="http://www.w3.org/1999/xlink">
<g id="graph0" class="graph" transform="scale(1 1) rotate(0) translate(4 184)">
<title>INFRA</title>
<polygon fill="white" stroke="none" points="-4,4 -4,-184 799.87,-184 799.87,4 -4,4"/>
<!-- flutter_windows.dll -->
<g id="node1" class="node">
<title>flutter_windows.dll</title>
<path fill="#e6e6e6" stroke="black" stroke-width="2" d="M156.77,-72C156.77,-72 50.39,-72 50.39,-72 44.39,-72 38.39,-66 38.39,-60 38.39,-60 38.39,-12 38.39,-12 38.39,-6 44.39,0 50.39,0 50.39,0 156.77,0 156.77,0 162.77,0 168.77,-6 168.77,-12 168.77,-12 168.77,-60 168.77,-60 168.77,-66 162.77,-72 156.77,-72"/>
<text text-anchor="middle" x="103.58" y="-40.2" font-family="Arial" font-size="14.00">flutter_windows.dll</text>
<text text-anchor="middle" x="103.58" y="-23.4" font-family="Arial" font-size="14.00">(Flutter::Library)</text>
</g>
<!-- flutter_wrapper_plugin -->
<g id="node2" class="node">
<title>flutter_wrapper_plugin</title>
<path fill="#e6e6e6" stroke="black" stroke-width="2" d="M161.16,-180C161.16,-180 12,-180 12,-180 6,-180 0,-174 0,-168 0,-168 0,-120 0,-120 0,-114 6,-108 12,-108 12,-108 161.16,-108 161.16,-108 167.16,-108 173.16,-114 173.16,-120 173.16,-120 173.16,-168 173.16,-168 173.16,-174 167.16,-180 161.16,-180"/>
<text text-anchor="middle" x="86.58" y="-148.2" font-family="Arial" font-size="14.00">flutter_wrapper_plugin</text>
<text text-anchor="middle" x="86.58" y="-131.4" font-family="Arial" font-size="14.00">(Flutter::Wrapper::Plugin)</text>
</g>
<!-- flutter_wrapper_plugin&#45;&gt;flutter_windows.dll -->
<g id="edge1" class="edge">
<title>flutter_wrapper_plugin&#45;&gt;flutter_windows.dll</title>
<path fill="none" stroke="black" d="M92.24,-107.7C93.49,-99.93 94.83,-91.57 96.13,-83.43"/>
<polygon fill="black" stroke="black" points="99.58,-84.06 97.7,-73.64 92.66,-82.96 99.58,-84.06"/>
</g>
<!-- flutter_wrapper_app -->
<g id="node3" class="node">
<title>flutter_wrapper_app</title>
<path fill="#e6e6e6" stroke="black" stroke-width="2" d="M338.15,-180C338.15,-180 203,-180 203,-180 197,-180 191,-174 191,-168 191,-168 191,-120 191,-120 191,-114 197,-108 203,-108 203,-108 338.15,-108 338.15,-108 344.15,-108 350.15,-114 350.15,-120 350.15,-120 350.15,-168 350.15,-168 350.15,-174 344.15,-180 338.15,-180"/>
<text text-anchor="middle" x="270.58" y="-148.2" font-family="Arial" font-size="14.00">flutter_wrapper_app</text>
<text text-anchor="middle" x="270.58" y="-131.4" font-family="Arial" font-size="14.00">(Flutter::Wrapper::App)</text>
</g>
<!-- flutter_wrapper_app&#45;&gt;flutter_windows.dll -->
<g id="edge2" class="edge">
<title>flutter_wrapper_app&#45;&gt;flutter_windows.dll</title>
<path fill="none" stroke="black" d="M214.97,-107.7C200.12,-98.28 183.94,-88.01 168.63,-78.29"/>
<polygon fill="black" stroke="black" points="170.83,-75.54 160.51,-73.13 167.07,-81.45 170.83,-75.54"/>
</g>
<!-- libflutter_linux_gtk.so -->
<g id="node4" class="node">
<title>libflutter_linux_gtk.so</title>
<path fill="#e6e6e6" stroke="black" stroke-width="2" d="M360.95,-72C360.95,-72 238.21,-72 238.21,-72 232.21,-72 226.21,-66 226.21,-60 226.21,-60 226.21,-12 226.21,-12 226.21,-6 232.21,0 238.21,0 238.21,0 360.95,0 360.95,0 366.95,0 372.95,-6 372.95,-12 372.95,-12 372.95,-60 372.95,-60 372.95,-66 366.95,-72 360.95,-72"/>
<text text-anchor="middle" x="299.58" y="-40.2" font-family="Arial" font-size="14.00">libflutter_linux_gtk.so</text>
<text text-anchor="middle" x="299.58" y="-23.4" font-family="Arial" font-size="14.00">(Flutter::Library)</text>
</g>
<!-- GTK -->
<g id="node5" class="node">
<title>GTK</title>
<path fill="#e6e6e6" stroke="black" stroke-width="2" d="M501.87,-72C501.87,-72 403.29,-72 403.29,-72 397.29,-72 391.29,-66 391.29,-60 391.29,-60 391.29,-12 391.29,-12 391.29,-6 397.29,0 403.29,0 403.29,0 501.87,0 501.87,0 507.87,0 513.87,-6 513.87,-12 513.87,-12 513.87,-60 513.87,-60 513.87,-66 507.87,-72 501.87,-72"/>
<text text-anchor="middle" x="452.58" y="-40.2" font-family="Arial" font-size="14.00">GTK</text>
<text text-anchor="middle" x="452.58" y="-23.4" font-family="Arial" font-size="14.00">(System::Library)</text>
</g>
<!-- GLIB -->
<g id="node6" class="node">
<title>GLIB</title>
<path fill="#e6e6e6" stroke="black" stroke-width="2" d="M642.87,-72C642.87,-72 544.29,-72 544.29,-72 538.29,-72 532.29,-66 532.29,-60 532.29,-60 532.29,-12 532.29,-12 532.29,-6 538.29,0 544.29,0 544.29,0 642.87,0 642.87,0 648.87,0 654.87,-6 654.87,-12 654.87,-12 654.87,-60 654.87,-60 654.87,-66 648.87,-72 642.87,-72"/>
<text text-anchor="middle" x="593.58" y="-40.2" font-family="Arial" font-size="14.00">GLIB</text>
<text text-anchor="middle" x="593.58" y="-23.4" font-family="Arial" font-size="14.00">(System::Library)</text>
</g>
<!-- GIO -->
<g id="node7" class="node">
<title>GIO</title>
<path fill="#e6e6e6" stroke="black" stroke-width="2" d="M783.87,-72C783.87,-72 685.29,-72 685.29,-72 679.29,-72 673.29,-66 673.29,-60 673.29,-60 673.29,-12 673.29,-12 673.29,-6 679.29,0 685.29,0 685.29,0 783.87,0 783.87,0 789.87,0 795.87,-6 795.87,-12 795.87,-12 795.87,-60 795.87,-60 795.87,-66 789.87,-72 783.87,-72"/>
<text text-anchor="middle" x="734.58" y="-40.2" font-family="Arial" font-size="14.00">GIO</text>
<text text-anchor="middle" x="734.58" y="-23.4" font-family="Arial" font-size="14.00">(System::Library)</text>
</g>
<!-- flutter -->
<g id="node8" class="node">
<title>flutter</title>
<path fill="#e6e6e6" stroke="black" stroke-width="2" d="M544.21,-180C544.21,-180 440.95,-180 440.95,-180 434.95,-180 428.95,-174 428.95,-168 428.95,-168 428.95,-120 428.95,-120 428.95,-114 434.95,-108 440.95,-108 440.95,-108 544.21,-108 544.21,-108 550.21,-108 556.21,-114 556.21,-120 556.21,-120 556.21,-168 556.21,-168 556.21,-174 550.21,-180 544.21,-180"/>
<text text-anchor="middle" x="492.58" y="-148.2" font-family="Arial" font-size="14.00">flutter</text>
<text text-anchor="middle" x="492.58" y="-131.4" font-family="Arial" font-size="14.00">(Flutter::Interface)</text>
</g>
<!-- flutter&#45;&gt;libflutter_linux_gtk.so -->
<g id="edge3" class="edge">
<title>flutter&#45;&gt;libflutter_linux_gtk.so</title>
<path fill="none" stroke="black" d="M428.58,-107.85C411.08,-98.24 391.97,-87.74 373.95,-77.84"/>
<polygon fill="black" stroke="black" points="375.84,-74.89 365.39,-73.14 372.47,-81.03 375.84,-74.89"/>
</g>
<!-- flutter&#45;&gt;GTK -->
<g id="edge4" class="edge">
<title>flutter&#45;&gt;GTK</title>
<path fill="none" stroke="black" d="M479.26,-107.7C476.26,-99.75 473.03,-91.19 469.89,-82.87"/>
<polygon fill="black" stroke="black" points="473.18,-81.68 466.37,-73.56 466.63,-84.15 473.18,-81.68"/>
</g>
<!-- flutter&#45;&gt;GLIB -->
<g id="edge5" class="edge">
<title>flutter&#45;&gt;GLIB</title>
<path fill="none" stroke="black" d="M526.21,-107.7C534.56,-98.94 543.6,-89.45 552.27,-80.35"/>
<polygon fill="black" stroke="black" points="554.69,-82.89 559.05,-73.24 549.62,-78.06 554.69,-82.89"/>
</g>
<!-- flutter&#45;&gt;GIO -->
<g id="edge6" class="edge">
<title>flutter&#45;&gt;GIO</title>
<path fill="none" stroke="black" d="M556.52,-111.92C559.57,-110.57 562.6,-109.26 565.58,-108 605.32,-91.22 619.01,-90.33 662.42,-72.33"/>
<polygon fill="black" stroke="black" points="663.56,-75.64 671.41,-68.52 660.84,-69.2 663.56,-75.64"/>
</g>
<!-- MealsAndroidApp -->
<g id="node9" class="node">
<title>MealsAndroidApp</title>
<path fill="#b7e0ff" stroke="black" stroke-width="2" d="M712.5,-180C712.5,-180 586.66,-180 586.66,-180 580.66,-180 574.66,-174 574.66,-168 574.66,-168 574.66,-120 574.66,-120 574.66,-114 580.66,-108 586.66,-108 586.66,-108 712.5,-108 712.5,-108 718.5,-108 724.5,-114 724.5,-120 724.5,-120 724.5,-168 724.5,-168 724.5,-174 718.5,-180 712.5,-180"/>
<text text-anchor="middle" x="649.58" y="-148.2" font-family="Arial" font-size="14.00">MealsAndroidApp</text>
<text text-anchor="middle" x="649.58" y="-131.4" font-family="Arial" font-size="14.00">(Android::Application)</text>
</g>
</g>
</svg>
